<?xml version="1.0" encoding="UTF-8"?>
<svg id="Ebene_2" data-name="Ebene 2" xmlns="http://www.w3.org/2000/svg" viewBox="0 0 157.95 58.84">
  <defs>
    
  </defs>
  <g id="Layer_1" data-name="Layer 1">
    <g>
      <path class="cls-3" d="m155.17,2.78H2.78v36.2h152.38V2.78ZM23.61,31.37h-4.67V14.47h-7.28v-4.07h19.23v4.07h-7.28v16.9Zm18.52-7.13h-12.22v-3.81h12.22v3.81Zm18.72,7.13l-3.46-8.15s-2.54-5.99-3.1-7.31l-6.53,15.46h-5.18l9.35-20.97h4.76l9.35,20.97h-5.18Zm20.49,0h-5.51c-1.32,0-2.56-.14-3.72-.42-1.16-.28-2.18-.75-3.07-1.41-.88-.66-1.58-1.53-2.1-2.61s-.77-2.42-.77-4.01v-12.52h4.67v12.52c0,.84.13,1.54.39,2.1.26.56.61,1.01,1.06,1.35.45.34.97.58,1.57.72s1.25.21,1.95.21h5.51v4.07Zm20.4-10.49c-.38.94-.89,1.69-1.54,2.25-.65.56-1.4.95-2.26,1.18-.86.23-1.78.34-2.76.34h-7.43v6.71h-4.67V10.4h12.09c.98,0,1.9.12,2.76.36.86.24,1.62.64,2.27,1.2s1.17,1.28,1.55,2.17c.38.89.57,1.97.57,3.25,0,1.4-.19,2.57-.57,3.51Zm20.67,10.49h-4.67v-8.45h-8.72v8.45h-4.67V10.4h4.67v8.45h8.72v-8.45h4.67v20.97Zm18.69,0l-3.46-8.15s-2.54-5.99-3.1-7.31l-6.53,15.46h-5.18l9.35-20.97h4.76l9.35,20.97h-5.18Z"></path>
      <path class="cls-3" d="m95.16,14.47h-7.41v6.11h7.41c.34,0,.66-.05.96-.15.3-.1.56-.27.79-.52.23-.25.41-.58.54-.99.13-.41.19-.92.19-1.54,0-1.06-.24-1.81-.73-2.25-.49-.44-1.07-.66-1.75-.66Z"></path>
      <path class="cls-3" d="m109.27,51.88h-3.1v1.99h3.1c.24,0,.45-.07.62-.22.17-.15.26-.42.26-.82,0-.35-.09-.6-.26-.73-.17-.14-.38-.2-.62-.2Z"></path>
      <polygon class="cls-2" points="117.74 18.85 109.02 18.85 109.02 10.4 104.35 10.4 104.35 31.37 109.02 31.37 109.02 22.92 117.74 22.92 117.74 31.37 122.42 31.37 122.42 10.4 117.74 10.4 117.74 18.85"></polygon>
      <path class="cls-2" d="m132.18,10.4l-9.35,20.97h5.18l1.71-4.07h.01l-1.72,4.07,6.53-15.46c.56,1.32,1.08,2.55,1.57,3.69.49,1.14,1,2.35,1.54,3.62h-.01l3.46,8.15h5.18l-9.35-20.97h-4.76Z"></path>
      <path class="cls-2" d="m137.65,23.22l-3.1-7.31c.56,1.32,3.1,7.31,3.1,7.31Z"></path>
      <polygon class="cls-2" points="129.73 27.3 128.02 31.37 129.74 27.3 129.73 27.3"></polygon>
      <path class="cls-2" d="m136.12,19.6c-.49-1.14-1.01-2.37-1.57-3.69l3.1,7.31h.01c-.54-1.28-1.05-2.49-1.54-3.62Z"></path>
      <polygon class="cls-2" points="30.89 10.4 11.66 10.4 11.66 14.47 18.94 14.47 18.94 31.37 23.61 31.37 23.61 14.47 30.89 14.47 30.89 10.4"></polygon>
      <rect class="cls-2" x="29.9" y="20.43" width="12.22" height="3.81"></rect>
      <path class="cls-2" d="m73.88,27.09c-.6-.14-1.12-.38-1.57-.72-.45-.34-.8-.79-1.06-1.35-.26-.56-.39-1.26-.39-2.1v-12.52h-4.67v12.52c0,1.6.26,2.94.77,4.01s1.21,1.95,2.1,2.61c.88.66,1.91,1.13,3.07,1.41,1.16.28,2.4.42,3.72.42h5.51v-4.07h-5.51c-.7,0-1.35-.07-1.95-.21Z"></path>
      <path class="cls-2" d="m100.2,11.96c-.65-.56-1.4-.96-2.27-1.2-.86-.24-1.78-.36-2.76-.36h-12.09v20.97h4.67v-6.71h7.43c.98,0,1.9-.11,2.76-.34.86-.23,1.61-.62,2.26-1.18.65-.56,1.16-1.31,1.54-2.25.38-.94.57-2.11.57-3.51,0-1.28-.19-2.36-.57-3.25-.38-.89-.9-1.61-1.55-2.17Zm-2.75,6.97c-.13.41-.31.74-.54.99-.23.25-.49.42-.79.52-.3.1-.62.15-.96.15h-7.41v-6.11h7.41c.68,0,1.26.22,1.75.66.49.44.73,1.19.73,2.25,0,.62-.07,1.13-.19,1.54Z"></path>
      <path class="cls-2" d="m57.39,23.22l-3.1-7.31c.56,1.32,3.1,7.31,3.1,7.31Z"></path>
      <path class="cls-2" d="m51.92,10.4l-9.35,20.97h5.18l1.71-4.07h.01l-1.72,4.07,6.53-15.46c.56,1.32,1.08,2.55,1.57,3.69.49,1.14,1,2.35,1.54,3.62h-.01l3.46,8.15h5.18l-9.35-20.97h-4.76Z"></path>
      <polygon class="cls-2" points="49.47 27.3 47.76 31.37 49.48 27.3 49.47 27.3"></polygon>
      <path class="cls-2" d="m55.86,19.6c-.49-1.14-1.01-2.37-1.57-3.69l3.1,7.31h.01c-.54-1.28-1.05-2.49-1.54-3.62Z"></path>
      <path class="cls-1" d="m0,41.77h157.95V0H0v41.77ZM2.78,2.78h152.38v36.2H2.78V2.78Z"></path>
      <rect class="cls-1" x="5.34" y="50.24" width="1.88" height="8.43"></rect>
      <polygon class="cls-1" points="14.86 51.88 17.78 51.88 17.78 58.67 19.66 58.67 19.66 51.88 22.59 51.88 22.59 50.24 14.86 50.24 14.86 51.88"></polygon>
      <path class="cls-1" d="m49.92,54.19c-.23-.2-.51-.34-.83-.43-.33-.08-.69-.13-1.09-.13h-1.99c-.27,0-.51-.06-.7-.19-.19-.13-.29-.36-.29-.69s.1-.56.29-.69c.19-.13.43-.19.7-.19h4.4v-1.64h-4.62c-.4,0-.77.04-1.09.12s-.6.22-.83.42c-.23.2-.41.46-.53.78-.13.32-.19.72-.19,1.2s.06.86.19,1.18c.12.32.3.58.53.78.23.2.51.34.83.43s.69.13,1.09.13h1.99c.27,0,.51.06.7.19.2.13.3.36.3.69s-.1.56-.29.69c-.19.13-.43.19-.71.19h-4.4v1.64h4.62c.4,0,.77-.04,1.09-.13.33-.08.61-.22.84-.42s.41-.45.53-.77c.13-.32.19-.72.19-1.2s-.06-.86-.19-1.18c-.13-.32-.3-.58-.53-.78Z"></path>
      <path class="cls-1" d="m60.72,50.46c-.44.15-.83.39-1.16.72-.33.33-.59.76-.78,1.3-.19.54-.29,1.2-.29,1.98s.1,1.44.29,1.97c.19.53.45.97.78,1.3s.71.57,1.16.72c.44.15.91.22,1.41.22h3.16v-1.64h-2.93c-.23,0-.46-.03-.67-.08s-.41-.15-.58-.29c-.17-.14-.32-.32-.44-.54-.12-.22-.2-.51-.25-.84h4.87v-1.64h-4.87c.05-.34.13-.62.25-.84s.27-.41.44-.54c.17-.14.37-.23.58-.29.21-.06.44-.08.67-.08h2.93v-1.64h-3.16c-.5,0-.97.07-1.41.22Z"></path>
      <path class="cls-1" d="m75.56,50.46c-.44.15-.83.39-1.16.72-.33.33-.59.76-.78,1.3-.19.54-.29,1.2-.29,1.98s.1,1.44.29,1.97c.19.53.45.97.78,1.3s.71.57,1.16.72c.44.15.91.22,1.41.22h3.16v-1.64h-2.93c-.27,0-.53-.04-.77-.12-.24-.08-.45-.22-.63-.42-.18-.2-.32-.47-.43-.79-.1-.33-.16-.74-.16-1.24s.05-.91.16-1.25.25-.6.43-.79c.18-.2.39-.34.63-.42s.5-.12.77-.12h2.93v-1.64h-3.16c-.5,0-.97.07-1.41.22Z"></path>
      <path class="cls-1" d="m94.14,55.15c0,.39-.05.72-.16.98-.1.26-.25.47-.43.63-.18.16-.39.27-.63.34-.24.07-.5.1-.77.1s-.54-.03-.78-.1c-.24-.07-.45-.18-.63-.34-.18-.16-.32-.37-.43-.63-.1-.26-.16-.59-.16-.98v-4.91h-1.88v4.91c0,.7.1,1.28.3,1.75.2.47.48.85.83,1.14.35.29.76.49,1.23.61.47.12.97.18,1.51.18s1.03-.06,1.49-.18c.46-.12.88-.32,1.23-.61s.63-.67.84-1.14c.2-.47.31-1.05.31-1.75v-4.91h-1.88v4.91Z"></path>
      <path class="cls-1" d="m110.91,55.09c.22-.14.41-.31.58-.52.16-.21.29-.46.39-.75.1-.29.15-.63.15-1.01,0-.48-.07-.89-.22-1.21-.15-.33-.34-.59-.59-.79-.25-.2-.54-.35-.87-.44-.33-.09-.69-.13-1.07-.13h-4.98v8.43h1.88v-3.17h2.02l1.73,3.17h2.18l-1.89-3.26c.24-.07.47-.18.7-.31Zm-1.03-1.45c-.17.15-.38.22-.62.22h-3.1v-1.99h3.1c.24,0,.45.07.62.2.17.14.26.38.26.73,0,.4-.09.68-.26.82Z"></path>
      <rect class="cls-1" x="120.24" y="50.24" width="1.88" height="8.43"></rect>
      <polygon class="cls-1" points="129.75 51.88 132.68 51.88 132.68 58.67 134.56 58.67 134.56 51.88 137.48 51.88 137.48 50.24 129.75 50.24 129.75 51.88"></polygon>
      <path class="cls-1" d="m149.36,51.77c-.33.51-.65,1.02-.96,1.53l-1.93-3.06h-2.28l3.26,4.88v3.55h1.88v-3.55l3.26-4.88h-2.29c-.31.51-.62,1.02-.96,1.53Z"></path>
    </g>
  </g>
</svg>